<svg width="550" height="305" viewBox="0 0 550 305" fill="none" xmlns="http://www.w3.org/2000/svg">
<g clip-path="url(#clip0)">
<path d="M216.366 12.643L232.375 3.33228L344.536 55.1784V214.049L243.473 168.769" fill="#21313C"/>
<path d="M344.536 214.539C344.438 214.539 344.339 214.539 344.339 214.539L243.277 169.259C242.982 169.161 242.884 168.867 242.982 168.573C243.08 168.279 243.375 168.181 243.67 168.279L343.947 213.167V55.3744L232.375 3.92033L216.661 13.035C216.366 13.2311 216.071 13.1331 215.973 12.839C215.777 12.545 215.875 12.251 216.17 12.153L232.08 2.84224C232.277 2.74424 232.375 2.74424 232.572 2.84224L344.732 54.6883C344.929 54.7863 345.027 54.9823 345.027 55.1784V214.049C345.027 214.245 344.929 214.441 344.83 214.539C344.732 214.539 344.634 214.539 344.536 214.539Z" fill="#13AA4F"/>
<path d="M266.063 181.804L336.482 217.283V60.0787L227.072 6.37051V117.903" fill="#21313C"/>
<path d="M336.482 217.871C336.384 217.871 336.286 217.871 336.286 217.773L265.768 182.196C265.473 182.098 265.375 181.706 265.572 181.51C265.67 181.216 266.063 181.118 266.259 181.314L335.991 216.499V60.3728L227.661 7.25259V117.903C227.661 118.197 227.464 118.393 227.17 118.393C226.875 118.393 226.679 118.197 226.679 117.903V6.37052C226.679 6.17451 226.777 5.97849 226.973 5.88048C227.17 5.78247 227.366 5.78247 227.464 5.88048L336.875 59.5887C337.072 59.6867 337.17 59.8827 337.17 60.0787V217.283C337.17 217.479 337.072 217.675 336.875 217.773C336.679 217.773 336.58 217.871 336.482 217.871Z" fill="#F3B7D2"/>
<path d="M221.768 129.37V9.50674L325.875 63.705V224.438L253.197 187.293" fill="#21313C"/>
<path d="M325.875 225.026C325.777 225.026 325.679 225.026 325.679 224.928L253 187.783C252.705 187.685 252.607 187.293 252.804 187.097C252.902 186.803 253.295 186.705 253.491 186.901L325.384 223.654V63.999L222.259 10.3888V129.37C222.259 129.664 222.063 129.86 221.768 129.86C221.473 129.86 221.277 129.664 221.277 129.37V9.50675C221.277 9.31074 221.375 9.11472 221.572 9.01671C221.768 8.9187 221.964 8.9187 222.063 9.01671L326.268 63.117C326.464 63.215 326.563 63.411 326.563 63.607V224.438C326.563 224.634 326.464 224.83 326.268 224.928C326.072 225.026 325.973 225.026 325.875 225.026Z" fill="#F3B7D2"/>
<path d="M216.169 171.612C249.955 191.115 283.643 210.619 317.428 230.122V66.8413C283.643 48.8078 249.955 30.6764 216.169 12.643V171.612Z" fill="#21313C"/>
<path d="M216.366 138.093C215.777 137.701 215.187 137.701 214.794 137.897C214.402 138.093 214.107 138.681 214.107 139.367C214.107 140.053 214.402 140.837 214.794 141.621C215.187 142.307 215.777 142.993 216.366 143.287C216.955 143.679 217.544 143.679 217.937 143.483C218.33 143.287 218.625 142.699 218.625 142.013L219.018 142.209L218.625 142.013C218.625 141.327 218.33 140.445 217.937 139.759C217.544 139.073 216.955 138.387 216.366 138.093Z" fill="#13AA52"/>
<path d="M216.366 137.211C214.696 136.231 213.321 137.015 213.321 138.975C213.321 140.935 214.696 143.189 216.366 144.169C218.036 145.149 219.411 144.365 219.411 142.405L219.018 142.209L218.625 142.013C218.625 142.699 218.33 143.189 217.937 143.483C217.544 143.679 216.955 143.679 216.366 143.287C215.777 142.895 215.187 142.307 214.795 141.621C214.402 140.935 214.107 140.151 214.107 139.367C214.107 138.681 214.402 138.093 214.795 137.897C215.187 137.701 215.777 137.701 216.366 138.093C216.955 138.485 217.544 139.073 217.937 139.759C218.33 140.445 218.625 141.229 218.625 142.013L219.018 142.209L219.411 142.405C219.411 140.543 218.036 138.191 216.366 137.211Z" fill="#13AA4F"/>
<path d="M316.937 151.912C316.348 151.52 315.759 151.52 315.366 151.716C314.973 151.912 314.678 152.5 314.678 153.186C314.678 153.872 314.973 154.754 315.366 155.44C315.759 156.126 316.348 156.812 316.937 157.106C317.526 157.498 318.116 157.498 318.509 157.302C318.901 157.106 319.196 156.518 319.196 155.832L319.589 156.028L319.196 155.832C319.196 155.146 318.901 154.362 318.509 153.578C318.116 152.892 317.526 152.206 316.937 151.912Z" fill="#13AA52"/>
<path d="M316.937 151.03C315.268 150.05 313.893 150.834 313.893 152.794C313.893 154.754 315.268 157.008 316.937 157.988C318.607 158.969 319.982 158.184 319.982 156.224L319.589 156.028L319.196 155.832C319.196 156.518 318.901 157.106 318.509 157.302C318.116 157.498 317.526 157.498 316.937 157.106C316.348 156.714 315.759 156.126 315.366 155.44C314.973 154.754 314.678 153.97 314.678 153.186C314.678 152.402 314.973 152.01 315.366 151.716C315.759 151.52 316.348 151.52 316.937 151.912C317.526 152.304 318.116 152.892 318.509 153.578C318.901 154.264 319.196 155.048 319.196 155.832L319.589 156.028L319.982 156.224C319.982 154.264 318.607 152.01 316.937 151.03Z" fill="#13AA4F"/>
<path d="M317.527 133.879V66.3512L216.366 12.643V137.603" fill="#21313C"/>
<path d="M216.366 138.191C216.071 138.191 215.875 137.995 215.875 137.701V12.643C215.875 12.447 215.973 12.251 216.17 12.153C216.366 12.055 216.563 12.055 216.661 12.153L317.821 65.9592C318.018 66.0572 318.116 66.2532 318.116 66.4492L318.018 133.977C318.018 134.271 317.821 134.467 317.527 134.467C317.232 134.467 317.036 134.271 317.036 133.977L317.134 66.8413L216.955 13.5251V137.603C216.955 137.897 216.661 138.191 216.366 138.191Z" fill="#13AA4F"/>
<path d="M230.018 178.962L317.428 229.73V157.694" fill="#21313C"/>
<path d="M317.428 230.318C317.33 230.318 317.232 230.318 317.134 230.22L229.723 179.452C229.428 179.256 229.428 178.962 229.527 178.766C229.723 178.472 230.018 178.472 230.214 178.57L316.741 228.848L316.839 157.694C316.839 157.4 317.035 157.204 317.33 157.204C317.625 157.204 317.821 157.4 317.821 157.694L317.723 229.73C317.723 229.926 317.625 230.122 317.428 230.22C317.527 230.318 317.527 230.318 317.428 230.318Z" fill="#13AA4F"/>
<path d="M218.428 37.537L183.661 17.8374C183.661 10.6828 191.42 6.2725 197.607 9.80078C197.607 2.64622 205.366 -1.76413 211.553 1.76415L213.911 3.13626C216.759 4.80239 218.527 7.84062 218.527 11.1729V37.537H218.428Z" fill="#21313C"/>
<path d="M218.428 38.027C218.33 38.027 218.232 38.027 218.134 37.929L183.268 18.2294C183.071 18.1314 182.973 17.9354 182.973 17.7394C182.973 14.2111 184.839 11.0749 187.884 9.21273C190.732 7.5466 194.071 7.44859 196.92 8.8207C197.214 5.58645 198.982 2.84223 201.83 1.1761C204.875 -0.588038 208.607 -0.588038 211.652 1.1761L214.009 2.54821C217.053 4.31235 218.92 7.5466 218.92 11.0749V37.4389C218.92 37.635 218.821 37.831 218.625 37.929C218.625 38.027 218.527 38.027 218.428 38.027ZM184.152 17.5434L217.937 36.6549V11.1729C217.937 8.03664 216.268 5.19442 213.518 3.62629L211.161 2.25419C208.411 0.686062 205.17 0.686062 202.42 2.25419C199.67 3.82231 198.098 6.66453 198.098 9.80078C198.098 9.99679 198 10.1928 197.803 10.2908C197.607 10.3888 197.411 10.3888 197.312 10.2908C194.562 8.72269 191.321 8.72269 188.571 10.2908C185.92 11.7609 184.25 14.5051 184.152 17.5434Z" fill="#C8E7D9"/>
<path d="M172.465 88.795L119.331 58.2166C119.331 50.082 128.17 44.9856 135.241 49.0039C135.241 40.7712 144.179 35.6748 151.25 39.7912C157.831 43.6135 161.857 50.572 161.857 58.1186C161.857 61.4509 161.857 64.2931 161.857 64.2931C168.438 68.1154 172.465 75.0739 172.465 82.7185V88.795Z" fill="#21313C"/>
<path d="M172.464 89.383C172.366 89.383 172.268 89.383 172.17 89.285L119.036 58.7066C118.839 58.6086 118.741 58.4126 118.741 58.2166C118.741 54.1983 120.804 50.572 124.339 48.6118C127.58 46.7497 131.411 46.6517 134.75 48.2198C135.045 44.4955 137.107 41.2613 140.348 39.3991C143.884 37.341 148.009 37.439 151.545 39.3991C158.223 43.3194 162.348 50.474 162.348 58.2166V63.9991C168.929 67.9194 172.955 75.0739 172.955 82.7185V88.795C172.955 88.991 172.857 89.187 172.661 89.285C172.661 89.285 172.563 89.383 172.464 89.383ZM119.92 57.9226L171.973 87.9129V82.7185C171.973 75.368 168.045 68.5074 161.563 64.7831C161.366 64.6851 161.268 64.4891 161.268 64.2931V58.1186C161.268 50.768 157.339 43.9075 150.955 40.1832C147.813 38.321 143.982 38.321 140.839 40.1832C137.697 42.0453 135.732 45.2796 135.732 48.9059C135.732 49.1019 135.634 49.2979 135.438 49.3959C135.241 49.4939 135.045 49.4939 134.947 49.3959C131.804 47.5338 127.973 47.5338 124.83 49.3959C121.884 51.2581 120.018 54.3943 119.92 57.9226Z" fill="#65C9DF"/>
<path d="M414.759 100.36L361.625 69.7815C361.625 61.6468 370.464 56.5504 377.536 60.5688C377.536 52.3361 386.473 47.2397 393.545 51.356C400.125 55.1783 404.152 62.1369 404.152 69.6835C404.152 73.0157 404.152 75.858 404.152 75.858C410.732 79.6803 414.759 86.6388 414.759 94.2834V100.36Z" fill="#21313C"/>
<path d="M414.759 100.85C414.661 100.85 414.562 100.85 414.464 100.752L361.33 70.1735C361.134 70.0755 361.036 69.8795 361.036 69.6835C361.036 65.6652 363.098 62.0389 366.634 60.0787C369.875 58.2166 373.705 58.1186 377.045 59.6867C377.339 55.9624 379.402 52.7282 382.643 50.866C386.179 48.8078 390.303 48.9059 393.839 50.866C400.518 54.7863 404.643 61.9409 404.643 69.6835V75.4659C411.223 79.3862 415.25 86.5408 415.25 94.1854V100.262C415.25 100.458 415.152 100.654 414.955 100.752C414.955 100.85 414.857 100.85 414.759 100.85ZM362.116 69.4875L414.17 99.4778V94.2834C414.17 86.9328 410.241 80.0723 403.759 76.348C403.562 76.25 403.464 76.054 403.464 75.858V69.6835C403.464 62.3329 399.536 55.4724 393.152 51.7481C390.009 49.8859 386.178 49.8859 383.036 51.7481C379.893 53.6102 377.928 56.8445 377.928 60.4708C377.928 60.6668 377.83 60.8628 377.634 60.9608C377.437 61.0588 377.241 61.0588 377.143 60.9608C374 59.0987 370.17 59.0987 367.027 60.9608C364.08 62.8229 362.214 65.9592 362.116 69.4875Z" fill="#65C9DF"/>
<path d="M377.732 103.986L455.813 148.972V148.286C455.813 136.133 449.134 124.862 438.429 118.981V115.649C438.429 104.966 432.634 95.0675 423.304 89.7751L421.634 88.795C413.581 84.2866 403.465 89.9711 403.268 99.1838L395.018 94.1854C387.456 89.6771 377.732 95.0675 377.732 103.986Z" fill="#21313C"/>
<path d="M455.813 149.462C455.715 149.462 455.616 149.462 455.518 149.364L377.438 104.378C377.241 104.28 377.143 104.084 377.143 103.888C377.143 99.5758 379.402 95.6555 383.232 93.4994C387.063 91.3432 391.482 91.4412 395.214 93.6954L402.679 98.2037C403.072 93.9894 405.429 90.3631 409.161 88.305C413.09 86.0508 417.804 86.0508 421.831 88.305L423.5 89.285C433.027 94.6755 438.92 104.77 438.92 115.649V118.589C449.625 124.568 456.304 135.937 456.304 148.188V148.874C456.304 149.07 456.206 149.266 456.009 149.364C456.009 149.364 455.911 149.462 455.813 149.462ZM378.223 103.594L455.223 147.894C455.125 136.035 448.643 125.058 438.134 119.373C437.938 119.275 437.839 119.079 437.839 118.883V115.649C437.839 105.162 432.143 95.3615 423.009 90.2651L421.34 89.285C417.706 87.2269 413.384 87.2269 409.75 89.285C406.116 91.3432 403.857 95.0675 403.759 99.1838C403.759 99.3798 403.661 99.5758 403.464 99.6738C403.268 99.7719 403.072 99.7719 402.973 99.6738L394.723 94.6755C391.286 92.6173 387.259 92.5193 383.822 94.4794C380.384 96.4396 378.322 99.7719 378.223 103.594Z" fill="#C8E7D9"/>
<path d="M235.223 132.212C235.027 132.212 234.83 132.114 234.732 131.918C234.634 131.624 234.732 131.33 235.027 131.232L244.259 126.822C244.554 126.724 244.848 126.822 244.946 127.116C245.045 127.41 244.946 127.704 244.652 127.802L235.42 132.212C235.42 132.212 235.321 132.212 235.223 132.212Z" fill="#FEDC49"/>
<path d="M248.482 125.842C248.286 125.842 248.089 125.744 247.991 125.548C247.893 125.254 247.991 124.96 248.286 124.862L251.821 123.196C252.116 123.098 252.411 123.196 252.509 123.49C252.607 123.784 252.509 124.078 252.214 124.176L248.678 125.842C248.58 125.842 248.482 125.842 248.482 125.842Z" fill="#FEDC49"/>
<path d="M240.134 135.153C239.937 135.153 239.741 135.055 239.643 134.859C239.545 134.565 239.643 134.271 239.937 134.173L250.937 128.88C251.232 128.782 251.527 128.88 251.625 129.174C251.723 129.468 251.625 129.762 251.33 129.86L240.33 135.153C240.232 135.153 240.134 135.153 240.134 135.153Z" fill="#FEDC49"/>
<path d="M254.179 128.39C253.982 128.39 253.786 128.292 253.688 128.096C253.589 127.802 253.688 127.508 253.982 127.41L256.634 126.136C256.929 126.038 257.223 126.136 257.322 126.43C257.42 126.724 257.322 127.018 257.027 127.116L254.375 128.39C254.277 128.39 254.277 128.39 254.179 128.39Z" fill="#FEDC49"/>
<path d="M240.134 141.131C239.937 141.131 239.741 141.033 239.643 140.837C239.545 140.543 239.643 140.249 239.937 140.151L245.634 137.407C245.928 137.309 246.223 137.407 246.321 137.701C246.42 137.995 246.321 138.289 246.027 138.387L240.33 141.131C240.232 141.033 240.134 141.131 240.134 141.131Z" fill="#FEDC49"/>
<path d="M249.955 136.329C249.759 136.329 249.562 136.231 249.464 136.035C249.366 135.741 249.464 135.447 249.759 135.349L256.634 132.016C256.928 131.918 257.223 132.016 257.321 132.31C257.419 132.604 257.321 132.898 257.027 132.996L250.152 136.329C250.152 136.329 250.053 136.329 249.955 136.329Z" fill="#FEDC49"/>
<path d="M286.982 119.961C286.688 119.961 286.491 119.765 286.491 119.471C286.491 119.177 286.688 118.883 286.982 118.883C295.036 117.805 299.946 110.553 299.946 99.5758C300.045 81.8364 287.473 60.2747 272.054 51.356C264.688 47.0437 257.714 46.3576 252.509 49.3959C247.402 52.3361 244.554 58.6086 244.455 67.0373C244.455 76.25 247.893 87.0308 253.884 96.6356C254.08 96.9296 253.982 97.2237 253.687 97.3217C253.393 97.5177 253.098 97.4197 253 97.1256C246.911 87.3249 243.375 76.348 243.375 66.9393C243.375 58.1186 246.42 51.5521 251.92 48.3178C257.42 45.1816 264.786 45.8676 272.545 50.278C288.259 59.2947 301.027 81.3464 300.929 99.3798C300.929 111.141 295.723 118.785 286.982 119.961ZM273.134 104.378C272.938 104.378 272.741 104.28 272.643 104.084C272.545 103.79 272.643 103.496 272.937 103.398L296.116 93.3033C296.411 93.2053 296.705 93.3033 296.804 93.5974C296.902 93.8914 296.804 94.1854 296.509 94.2834L273.33 104.378C273.232 104.378 273.134 104.378 273.134 104.378ZM259.875 100.458C259.679 100.458 259.482 100.36 259.384 100.164C259.286 99.8699 259.384 99.5758 259.679 99.4778L293.857 83.5026C294.152 83.4046 294.446 83.5026 294.545 83.7966C294.643 84.0906 294.545 84.3846 294.25 84.4826L260.071 100.458C260.071 100.458 259.973 100.458 259.875 100.458ZM254.866 92.1273C254.67 92.1273 254.473 92.0292 254.375 91.8332C254.277 91.5392 254.375 91.2452 254.67 91.1472L290.125 74.6819C290.42 74.5839 290.714 74.6819 290.813 74.9759C290.911 75.2699 290.812 75.5639 290.518 75.6619L255.063 92.1273C255.063 92.1273 254.964 92.1273 254.866 92.1273ZM250.937 83.4046C250.741 83.4046 250.545 83.3066 250.446 83.1105C250.348 82.8165 250.446 82.5225 250.741 82.4245L285.018 66.4492C285.313 66.3512 285.607 66.4492 285.705 66.7432C285.804 67.0373 285.705 67.3313 285.411 67.4293L251.232 83.3066C251.134 83.4046 251.036 83.4046 250.937 83.4046ZM247.991 73.8978C247.795 73.8978 247.598 73.7998 247.5 73.6038C247.402 73.3098 247.5 73.0157 247.795 72.9177L278.339 59.0006C278.634 58.9026 278.929 59.0006 279.027 59.2947C279.125 59.5887 279.027 59.8827 278.732 59.9807L248.187 73.8978C248.089 73.8978 247.991 73.8978 247.991 73.8978ZM249.857 62.5289C249.661 62.5289 249.464 62.4309 249.366 62.2349C249.268 61.9409 249.366 61.6468 249.661 61.5488L267.83 53.5122C268.125 53.4142 268.42 53.5122 268.518 53.8062C268.616 54.1003 268.518 54.3943 268.223 54.4923L250.054 62.5289C249.955 62.5289 249.857 62.5289 249.857 62.5289Z" fill="#65C9DF"/>
<path d="M272.839 109.573L271.563 109.083L256.929 103.202L253.393 105.26L260.072 116.825L272.839 109.573Z" fill="#21313C"/>
<path d="M260.072 117.315C259.875 117.315 259.679 117.217 259.58 117.021L252.902 105.456C252.804 105.358 252.804 105.162 252.804 105.064C252.804 104.966 252.902 104.77 253.098 104.77L256.634 102.81C256.732 102.712 256.929 102.712 257.125 102.81L273.036 109.083C273.232 109.181 273.331 109.377 273.331 109.573C273.331 109.769 273.232 109.965 273.036 110.063L260.268 117.315C260.268 117.315 260.17 117.315 260.072 117.315ZM254.081 105.456L260.268 116.139L271.661 109.671L257.027 103.888L254.081 105.456Z" fill="#F3B7D2"/>
<path d="M278.928 120.059L266.161 127.312L272.839 138.877L276.375 136.819L278.928 120.059Z" fill="#21313C"/>
<path d="M272.839 139.367C272.643 139.367 272.446 139.269 272.348 139.073L265.67 127.508C265.571 127.41 265.571 127.214 265.571 127.116C265.571 127.018 265.67 126.822 265.866 126.822L278.634 119.569C278.732 119.471 278.83 119.471 279.027 119.471C279.321 119.471 279.518 119.765 279.518 119.961V120.059L276.964 136.917C276.964 137.113 276.866 137.211 276.67 137.309L273.134 139.367C273.036 139.367 272.937 139.367 272.839 139.367ZM266.848 127.508L273.036 138.191L275.884 136.525L278.241 121.04L266.848 127.508Z" fill="#F3B7D2"/>
<path d="M258.304 120.452L256.339 121.628L260.268 128.39L262.232 127.312L258.304 120.452Z" fill="#21313C"/>
<path d="M260.268 128.88C260.071 128.88 259.875 128.782 259.777 128.586L255.848 121.824C255.75 121.726 255.75 121.53 255.75 121.432C255.75 121.334 255.848 121.138 256.045 121.138L258.009 120.059C258.304 119.961 258.598 119.961 258.696 120.255L262.625 127.018C262.723 127.116 262.723 127.312 262.723 127.41C262.723 127.508 262.625 127.704 262.429 127.704L260.464 128.782C260.464 128.88 260.366 128.88 260.268 128.88ZM257.027 121.824L260.464 127.704L261.446 127.116L258.009 121.236L257.027 121.824Z" fill="#F3B7D2"/>
<path d="M281.187 113.787C280.696 113.493 280.107 112.905 279.714 112.219C278.929 110.847 278.929 109.377 279.714 108.887C280.107 108.691 280.696 108.691 281.187 109.083C281.679 109.377 282.268 109.965 282.661 110.651C283.446 112.023 283.446 113.493 282.661 113.983C282.268 114.179 281.679 114.081 281.187 113.787ZM291.009 105.26C290.911 105.162 290.714 105.162 290.616 105.162H283.839C281.679 105.162 279.714 105.652 278.045 106.632L274.804 108.495L272.839 109.573L260.071 116.825L257.125 118.491L258.304 120.451L262.232 127.214L263.214 128.88L266.161 127.214L278.929 119.961L280.795 118.883L283.741 117.217L284.625 116.727C286 115.943 287.08 114.767 287.964 113.395L291.795 107.024C292.089 106.534 291.598 105.554 291.009 105.26Z" fill="#21313C"/>
<path d="M263.214 129.468C263.018 129.468 262.821 129.37 262.723 129.174L256.634 118.687C256.536 118.589 256.536 118.393 256.536 118.295C256.536 118.197 256.634 118.001 256.83 118.001L277.75 106.142C279.518 105.162 281.58 104.574 283.839 104.574H290.616C290.812 104.574 291.009 104.672 291.303 104.77C291.795 105.064 292.187 105.652 292.384 106.24C292.482 106.632 292.482 107.024 292.286 107.416L288.455 113.787C287.571 115.355 286.295 116.531 284.92 117.315L263.509 129.468C263.312 129.468 263.214 129.468 263.214 129.468ZM257.812 118.687L263.312 128.194L284.232 116.237C285.509 115.551 286.589 114.473 287.375 113.003L291.205 106.632C291.205 106.632 291.205 106.534 291.205 106.338C291.107 106.044 290.911 105.652 290.616 105.554C290.518 105.554 290.518 105.554 290.518 105.554H283.741C281.678 105.554 279.812 106.044 278.143 106.926L257.812 118.687ZM282.071 114.571C281.678 114.571 281.286 114.473 280.893 114.179C280.303 113.787 279.714 113.199 279.223 112.415C278.634 111.435 278.437 110.259 278.634 109.377C278.732 108.887 279.027 108.495 279.42 108.299C280.009 108.004 280.696 108.004 281.384 108.495C281.973 108.887 282.562 109.475 283.053 110.259C283.643 111.337 283.839 112.415 283.643 113.297C283.545 113.787 283.25 114.179 282.857 114.375C282.661 114.571 282.366 114.571 282.071 114.571ZM281.482 113.297C281.875 113.493 282.17 113.591 282.366 113.395C282.464 113.297 282.562 113.199 282.661 113.003C282.857 112.415 282.661 111.533 282.17 110.847C281.875 110.259 281.384 109.769 280.893 109.475C280.5 109.279 280.205 109.181 280.009 109.377C279.911 109.475 279.812 109.573 279.714 109.769C279.518 110.357 279.714 111.239 280.205 111.925C280.5 112.611 280.991 113.101 281.482 113.297Z" fill="#F3B7D2"/>
<path d="M281.188 109.083C280.696 108.789 280.107 108.691 279.714 108.887C278.929 109.377 278.929 110.847 279.714 112.219C280.107 112.905 280.598 113.493 281.188 113.787C281.679 114.081 282.268 114.179 282.661 113.885C283.446 113.395 283.446 111.925 282.661 110.553C282.268 109.867 281.777 109.377 281.188 109.083Z" fill="#13AA52"/>
<path d="M282.071 114.571C281.678 114.571 281.286 114.473 280.893 114.179C280.303 113.787 279.714 113.199 279.223 112.415C278.634 111.435 278.437 110.259 278.634 109.377C278.732 108.887 279.027 108.495 279.419 108.299C280.009 108.005 280.696 108.005 281.384 108.495C281.973 108.887 282.562 109.475 283.053 110.259C283.643 111.337 283.839 112.415 283.643 113.297C283.544 113.787 283.25 114.179 282.857 114.375C282.661 114.571 282.366 114.571 282.071 114.571ZM280.303 109.279C280.205 109.279 280.107 109.279 280.009 109.377C279.911 109.475 279.812 109.573 279.714 109.769C279.518 110.357 279.714 111.239 280.205 111.925C280.5 112.513 280.991 113.003 281.482 113.297C281.875 113.493 282.169 113.591 282.366 113.395C282.464 113.297 282.562 113.199 282.66 113.003C282.857 112.415 282.66 111.533 282.169 110.847C281.875 110.259 281.384 109.769 280.893 109.475C280.696 109.377 280.5 109.279 280.303 109.279Z" fill="#FEDC49"/>
<path d="M240.036 155.93L298.375 189.841L298.473 178.374L240.036 144.757V155.93Z" fill="#13AA52"/>
<path d="M298.375 190.429C298.277 190.429 298.178 190.429 298.08 190.331L239.741 156.42C239.545 156.322 239.446 156.126 239.446 155.93V144.757C239.446 144.561 239.545 144.365 239.741 144.267C239.937 144.169 240.134 144.169 240.232 144.267L298.768 177.884C298.964 177.982 299.062 178.178 299.062 178.374L298.866 189.939C298.866 190.135 298.768 190.331 298.571 190.429C298.571 190.331 298.473 190.429 298.375 190.429ZM240.527 155.636L297.786 188.959L297.884 178.668L240.428 145.737V155.636H240.527Z" fill="#FEDC49"/>
<path d="M424.777 257.368L424.482 257.172L382.25 232.866L424.679 208.364L424.973 208.56L467.205 232.866L424.777 257.368ZM384.411 232.866L424.777 256.094L465.143 232.866L424.777 209.638L384.411 232.866Z" fill="#C8E7D9"/>
<path d="M507.571 257.172L507.277 256.976L465.044 232.67L507.473 208.168L507.768 208.364L550 232.67L507.571 257.172ZM467.205 232.768L507.571 255.996L547.937 232.768L507.571 209.54L467.205 232.768Z" fill="#C8E7D9"/>
<path d="M466.125 185.235L424.777 209.05L383.429 185.235L424.777 161.321L466.125 185.235Z" fill="#13AA52"/>
<path d="M424.777 209.54C424.679 209.54 424.58 209.54 424.482 209.442L383.134 185.627C382.938 185.529 382.839 185.333 382.839 185.137C382.839 184.941 382.938 184.745 383.134 184.647L424.482 160.831C424.679 160.733 424.875 160.733 424.973 160.831L466.321 184.647C466.518 184.745 466.616 184.941 466.616 185.137C466.616 185.333 466.518 185.529 466.321 185.627L424.973 209.442C424.973 209.54 424.875 209.54 424.777 209.54ZM384.411 185.235L424.777 208.462L465.143 185.235L424.777 162.007L384.411 185.235Z" fill="#FEDC49"/>
<path d="M424.875 305L424.58 304.804L382.348 280.498L424.679 256.094L424.973 256.29L467.205 280.596L424.875 305ZM384.509 280.498L424.875 303.726L465.143 280.498L424.777 257.27L384.509 280.498Z" fill="#C8E7D9"/>
<path d="M383.429 281.184L383.134 280.988L340.902 256.682L383.232 232.278L383.527 232.474L425.759 256.78L383.429 281.184ZM343.161 256.682L383.527 279.91L423.795 256.682L383.429 233.454L343.161 256.682Z" fill="#C8E7D9"/>
<path d="M452.669 241.001L425.169 225.026L396.884 241.491L424.384 257.368L452.669 241.001Z" fill="#21313C"/>
<path d="M424.384 257.858C424.286 257.858 424.187 257.858 424.089 257.76L396.491 241.883C396.295 241.785 396.196 241.589 396.196 241.393C396.196 241.197 396.295 241.001 396.491 240.903L424.777 224.536C424.973 224.438 425.17 224.438 425.268 224.536L452.866 240.511C453.062 240.609 453.161 240.805 453.161 241.001C453.161 241.197 453.062 241.393 452.866 241.491L424.58 257.76C424.58 257.858 424.482 257.858 424.384 257.858ZM397.866 241.491L424.384 256.78L451.589 241.099L425.071 225.712L397.866 241.491Z" fill="#F3B7D2"/>
<path d="M79.1611 227.084L40.3664 204.738L1.57178 227.084L40.2682 249.43L79.1611 227.084Z" fill="#21313C"/>
<path d="M40.2681 249.92C40.1699 249.92 40.0716 249.92 39.9734 249.822L1.37521 227.574C1.17878 227.476 1.08057 227.28 1.08057 227.084C1.08057 226.888 1.17878 226.692 1.37521 226.594L40.0716 204.248C40.2681 204.15 40.4645 204.15 40.5627 204.248L79.3574 226.594C79.5538 226.692 79.652 226.888 79.652 227.084C79.652 227.28 79.5538 227.476 79.3574 227.574L40.5627 249.92C40.4645 249.92 40.3663 249.92 40.2681 249.92ZM2.65199 227.084L40.2681 248.842L78.0806 227.182L40.3663 205.522L2.65199 227.084Z" fill="#65C9DF"/>
<path d="M198.884 250.508L198.589 250.312L158.223 227.084L198.884 203.66L199.179 203.856L239.545 227.084L198.884 250.508ZM160.384 227.182L198.884 249.332L237.384 227.182L198.884 205.032L160.384 227.182Z" fill="#C8E7D9"/>
<path d="M198.884 296.179L198.589 295.983L158.223 272.755L198.884 249.332L199.179 249.528L239.545 272.755L198.884 296.179ZM160.384 272.755L198.884 294.905L237.384 272.755L198.884 250.606L160.384 272.755Z" fill="#C8E7D9"/>
<path d="M119.723 159.361L119.429 159.165L79.0625 135.937L119.723 112.513L120.018 112.709L160.384 135.937L119.723 159.361ZM81.2232 135.937L119.723 158.086L158.223 135.937L119.723 113.787L81.2232 135.937Z" fill="#C8E7D9"/>
<path d="M80.2413 182.196L79.9466 182L39.5806 158.772L80.2413 135.349L80.5359 135.545L120.804 158.772L80.2413 182.196ZM41.7413 158.772L80.2413 180.922L118.741 158.772L80.2413 136.623L41.7413 158.772Z" fill="#C8E7D9"/>
<path d="M40.6607 204.934L40.3661 204.738L0 181.51L40.6607 158.086L40.9554 158.282L81.3214 181.51L40.6607 204.934ZM2.16071 181.51L40.6607 203.66L79.1607 181.51L40.6607 159.361L2.16071 181.51Z" fill="#C8E7D9"/>
<path d="M80.2413 227.182L40.6609 249.92L1.08057 227.182L40.6609 204.346L80.2413 227.182Z" fill="#13AA52"/>
<path d="M40.6609 250.508C40.5626 250.508 40.4644 250.508 40.3662 250.41L0.785854 227.574C0.589425 227.476 0.491211 227.28 0.491211 227.084C0.491211 226.888 0.589425 226.692 0.785854 226.594L40.3662 203.856C40.5626 203.758 40.7591 203.758 40.8573 203.856L80.4376 226.692C80.6341 226.79 80.7323 226.986 80.7323 227.182C80.7323 227.378 80.6341 227.574 80.4376 227.672L40.8573 250.508C40.8573 250.41 40.7591 250.508 40.6609 250.508ZM2.16085 227.182L40.6609 249.332L79.1609 227.182L40.6609 205.032L2.16085 227.182Z" fill="#FEDC49"/>
<path d="M40.6609 158.772L1.08057 135.937L40.6609 113.199L80.2413 135.937L40.6609 158.772Z" fill="#21313C"/>
<path d="M40.6609 159.263C40.5626 159.263 40.4644 159.263 40.3662 159.165L0.785854 136.427C0.589425 136.329 0.491211 136.133 0.491211 135.937C0.491211 135.741 0.589425 135.545 0.785854 135.447L40.3662 112.709C40.5626 112.611 40.7591 112.611 40.8573 112.709L80.4376 135.545C80.6341 135.643 80.7323 135.839 80.7323 136.035C80.7323 136.231 80.6341 136.427 80.4376 136.525L40.8573 159.361C40.8573 159.263 40.7591 159.263 40.6609 159.263ZM2.16085 135.937L40.6609 158.086L79.1609 135.937L40.6609 113.787L2.16085 135.937Z" fill="#65C9DF"/>
<path d="M119.723 250.508L119.429 250.312L79.0625 227.084L119.723 203.66L120.018 203.856L160.384 227.084L119.723 250.508ZM81.2232 227.182L119.723 249.332L158.223 227.182L119.723 205.032L81.2232 227.182Z" fill="#C8E7D9"/>
<path d="M217.054 285.006L198.884 274.52L180.714 285.006L198.884 295.493L217.054 285.006Z" fill="#21313C"/>
<path d="M198.884 295.983C198.786 295.983 198.688 295.983 198.589 295.885L180.42 285.398C180.223 285.3 180.125 285.104 180.125 284.908C180.125 284.712 180.223 284.516 180.42 284.418L198.589 273.932C198.786 273.834 198.982 273.834 199.08 273.932L217.25 284.32C217.446 284.418 217.545 284.614 217.545 284.81C217.545 285.006 217.446 285.202 217.25 285.3L199.08 295.983C199.08 295.983 198.982 295.983 198.884 295.983ZM181.795 285.006L198.884 294.905L216.071 285.006L198.884 275.206L181.795 285.006Z" fill="#FEDC49"/>
<path d="M141.429 156.322L122.964 145.737L104.5 156.42L122.964 167.103L141.429 156.322Z" fill="#21313C"/>
<path d="M122.964 167.593C122.866 167.593 122.768 167.593 122.67 167.495L104.205 156.812C104.009 156.714 103.911 156.518 103.911 156.322C103.911 156.126 104.009 155.93 104.205 155.832L122.67 145.149C122.866 145.051 123.062 145.051 123.161 145.149L141.625 155.734C141.821 155.832 141.92 156.028 141.92 156.224C141.92 156.42 141.821 156.616 141.625 156.714L123.062 167.397C123.161 167.593 123.062 167.593 122.964 167.593ZM105.58 156.42L122.964 166.417L140.446 156.322L122.964 146.326L105.58 156.42Z" fill="#FEDC49"/>
<path d="M206.25 174.258C201.339 171.415 197.411 164.555 197.411 158.969C197.411 153.382 201.437 151.03 206.348 153.872C211.259 156.714 215.187 163.575 215.187 169.161C215.187 172.886 213.419 175.042 210.866 175.434C209.491 175.63 207.919 175.238 206.25 174.258ZM206.348 140.053C194.661 133.29 185.232 138.681 185.134 152.108C185.134 159.165 187.687 168.181 191.125 176.904L197.018 190.429C201.732 200.524 206.152 207.972 206.152 207.972C206.152 207.972 227.366 196.113 227.366 176.414C227.366 163.085 217.937 146.718 206.348 140.053Z" fill="#21313C"/>
<path d="M205.955 208.756L205.661 208.266C205.661 208.168 201.241 200.622 196.527 190.625L190.634 177.1C186.607 166.711 184.544 158.282 184.544 152.01C184.544 145.345 186.902 140.347 191.027 137.995C195.25 135.643 200.75 136.133 206.544 139.465C218.33 146.228 227.857 162.791 227.857 176.316C227.759 196.113 206.544 208.168 206.348 208.364L205.955 208.756ZM196.821 137.701C194.857 137.701 193.089 138.191 191.616 139.073C187.786 141.229 185.723 145.933 185.723 152.206C185.723 158.282 187.687 166.613 191.714 176.806L197.607 190.331C201.634 198.858 205.464 205.62 206.446 207.384C207.821 206.502 212.143 203.758 216.464 199.348C221.178 194.447 226.875 186.607 226.973 176.61C226.973 163.379 217.643 147.306 206.152 140.641C202.812 138.583 199.669 137.701 196.821 137.701ZM210.178 176.022C208.803 176.022 207.428 175.63 205.955 174.748C200.946 171.808 196.821 164.751 196.821 158.968C196.821 156.028 197.803 153.872 199.669 152.794C201.536 151.716 203.991 151.912 206.544 153.382C211.553 156.322 215.678 163.379 215.678 169.161C215.678 172.984 213.812 175.532 210.964 175.924C210.669 176.022 210.473 176.022 210.178 176.022ZM202.321 153.186C201.536 153.186 200.848 153.382 200.259 153.676C198.786 154.558 197.902 156.42 197.902 158.87C197.902 164.359 201.732 170.925 206.446 173.67C208.018 174.552 209.491 174.944 210.768 174.748C213.125 174.454 214.598 172.298 214.598 169.063C214.598 163.575 210.768 156.91 206.053 154.264C204.678 153.578 203.402 153.186 202.321 153.186Z" fill="#F3B7D2"/>
<path d="M206.25 153.872C201.339 151.03 197.312 153.284 197.312 158.968C197.312 164.555 201.241 171.415 206.152 174.258C207.821 175.238 209.393 175.63 210.768 175.434C213.321 175.14 214.991 172.886 215.089 169.161C215.187 163.575 211.161 156.714 206.25 153.872Z" fill="#21313C"/>
<path d="M210.178 176.022C208.803 176.022 207.428 175.63 205.955 174.748C200.946 171.808 196.821 164.751 196.821 158.969C196.821 156.028 197.803 153.872 199.67 152.794C201.536 151.716 203.991 151.912 206.545 153.382C211.553 156.322 215.678 163.379 215.678 169.161C215.678 172.984 213.812 175.532 210.964 175.924C210.67 176.022 210.473 176.022 210.178 176.022ZM202.321 153.186C201.536 153.186 200.848 153.382 200.259 153.676C198.786 154.558 197.902 156.42 197.902 158.871C197.902 164.359 201.732 170.925 206.446 173.67C208.018 174.552 209.491 174.944 210.768 174.748C213.125 174.454 214.598 172.298 214.598 169.063C214.598 163.575 210.768 156.91 206.053 154.264C204.678 153.578 203.402 153.186 202.321 153.186Z" fill="#FEDC49"/>
<path d="M192.401 177.59C191.812 177.198 191.223 177.198 190.83 177.394C190.437 177.59 190.143 178.178 190.143 178.864C190.143 179.55 190.437 180.334 190.83 181.118C191.223 181.804 191.812 182.49 192.401 182.784C192.991 183.176 193.58 183.176 193.973 182.98C194.366 182.784 194.66 182.196 194.66 181.51L195.053 181.706L194.66 181.51C194.66 180.824 194.366 179.942 193.973 179.256C193.58 178.57 192.991 177.982 192.401 177.59Z" fill="#F3B7D2"/>
<path d="M192.402 176.708C190.732 175.728 189.357 176.512 189.357 178.472C189.357 180.432 190.732 182.686 192.402 183.666C194.071 184.647 195.446 183.862 195.446 181.902L195.053 181.706L194.66 181.51C194.66 182.196 194.366 182.686 193.973 182.98C193.58 183.176 192.991 183.176 192.402 182.784C191.812 182.392 191.223 181.804 190.83 181.118C190.437 180.432 190.143 179.648 190.143 178.864C190.143 178.178 190.437 177.59 190.83 177.394C191.223 177.198 191.812 177.198 192.402 177.59C192.991 177.982 193.58 178.57 193.973 179.256C194.366 179.942 194.66 180.726 194.66 181.51L195.053 181.706L195.446 181.902C195.446 180.04 194.071 177.688 192.402 176.708Z" fill="#F3B7D2"/>
</g>
<defs>
<clipPath id="clip0">
<rect width="550" height="305" fill="white"/>
</clipPath>
</defs>
</svg>
